<?xml version="1.0" encoding="UTF-8"?>
<svg width="260px" height="19px" viewBox="0 0 260 19" version="1.1" xmlns="http://www.w3.org/2000/svg" xmlns:xlink="http://www.w3.org/1999/xlink">
    <title>logo-el-idependiente</title>
    <g id="Page-1" stroke="none" stroke-width="1" fill="none" fill-rule="evenodd">
        <g id="logo-el-idependiente" transform="translate(0, -0.0086)" fill-rule="nonzero">
            <g id="Grupo_2" transform="translate(25.576, 0)" fill="#010003">
                <path d="M13.93,18.1476346 L0,18.1476346 L0,17.8716346 C0.30127029,17.8423741 0.599405464,17.7868293 0.891,17.7056346 C1.16487605,17.621774 1.41779835,17.4806556 1.633,17.2916346 C1.86360623,17.0707013 2.03546041,16.7957346 2.133,16.4916346 C2.29512394,15.9674046 2.39021359,15.4247552 2.416,14.8766346 C2.46066667,14.2233012 2.48333333,13.4823012 2.484,12.6536346 L2.484,5.50363458 C2.484,4.67496791 2.46133333,3.93396791 2.416,3.28063458 C2.39004299,2.73253282 2.29495708,2.18990475 2.133,1.66563458 C2.04230827,1.35410152 1.86962956,1.07263523 1.633,0.850634578 C1.41427776,0.669952304 1.16216211,0.534040902 0.891,0.450634578 C0.599405464,0.369439831 0.30127029,0.313895007 0,0.284634578 L0,0.00863457799 L13.228,0.00863457799 L13.928,5.19963458 L13.604,5.19963458 C13.3640962,4.52593977 13.0565243,3.87829648 12.686,3.26663458 C12.3299166,2.68348711 11.9037431,2.14615253 11.417,1.66663458 C11.107047,1.36236813 10.7462817,1.11463812 10.351,0.934634578 C9.8462735,0.709584318 9.29740293,0.600903843 8.745,0.616634578 L7.881,0.616634578 C7.62237627,0.615590459 7.3644447,0.643429627 7.112,0.699634578 C6.87513637,0.752021533 6.6563811,0.866229722 6.478,1.03063458 C6.27918115,1.19724112 6.11796616,1.404128 6.005,1.63763458 C5.8847974,1.88731565 5.7986935,2.15201789 5.749,2.42463458 C5.69516683,2.71176019 5.66373879,3.0026367 5.655,3.29463458 C5.64566667,3.58930124 5.641,3.86530124 5.641,4.12263458 L5.641,8.42963458 L6.721,8.42963458 C7.25929659,8.44695007 7.79786534,8.40503158 8.327,8.30463458 C8.66183485,8.22081124 8.96597124,8.04360064 9.204,7.79363458 C9.57575666,7.44480437 9.86216165,7.01502579 10.041,6.53763458 C10.2284286,6.07278082 10.3554649,5.58580836 10.419,5.08863458 L10.719,5.08863458 L10.719,12.3776346 L10.419,12.3776346 C10.3552344,11.8966115 10.2374922,11.4243011 10.068,10.9696346 C9.91025807,10.5067108 9.64140776,10.0895293 9.285,9.75463458 C9.00732482,9.53776572 8.69762813,9.36537465 8.367,9.24363458 C7.83380886,9.08127622 7.27678501,9.01126776 6.72,9.03663458 L5.64,9.03663458 L5.64,13.5646346 C5.64,13.8593012 5.64466667,14.1719679 5.654,14.5026346 C5.66269235,14.8305568 5.68973465,15.1577353 5.735,15.4826346 C5.77461921,15.7852869 5.85153697,16.0818738 5.964,16.3656346 C6.06420488,16.6220062 6.23218947,16.8463313 6.45,17.0146346 C6.68990976,17.2205776 6.97772185,17.3629363 7.287,17.4286346 C7.62376903,17.5039101 7.96792392,17.5411432 8.313,17.5396346 L8.88,17.5396346 C9.50548049,17.5621931 10.1280667,17.4443049 10.702,17.1946346 C11.169696,16.9702504 11.5944533,16.6656436 11.957,16.2946346 C12.5107745,15.7337052 12.9821409,15.0970239 13.357,14.4036346 C13.6980444,13.7717436 14.0044963,13.1217852 14.275,12.4566346 L14.545,12.4566346 L13.93,18.1476346 Z" id="Trazado_2"></path>
                <path d="M14.847,17.8436346 L15.306,17.7886346 C15.4521133,17.7734045 15.5966459,17.7456355 15.738,17.7056346 C16.3251807,17.543848 16.7918017,17.0978906 16.98,16.5186346 C17.1637125,15.9369956 17.2679892,15.3331997 17.29,14.7236346 C17.3346667,13.9903012 17.3573333,13.1619679 17.358,12.2386346 L17.358,5.88863458 C17.358,4.96863458 17.3353333,4.14030124 17.29,3.40363458 C17.2699549,2.80302053 17.1656011,2.20820372 16.98,1.63663458 C16.8780193,1.34246049 16.7064882,1.07727338 16.48,0.863634578 C16.2644141,0.675158352 16.0116142,0.534108269 15.738,0.449634578 C15.4560399,0.366515386 15.166687,0.310922113 14.874,0.283634578 L14.874,0.00763457799 L23.08,0.00763457799 L23.08,0.283634578 C22.7872926,0.310778248 22.4979258,0.366374182 22.216,0.449634578 C21.9388841,0.535770063 21.6818281,0.676538846 21.46,0.863634578 C21.2262201,1.07363311 21.0496873,1.33963674 20.947,1.63663458 C20.7782989,2.21188881 20.6776118,2.80493564 20.647,3.40363458 C20.593,4.13696791 20.566,4.96530124 20.566,5.88863458 L20.566,13.3156346 C20.566,13.9603012 20.5796667,14.5033012 20.607,14.9446346 C20.6189203,15.3005557 20.6781054,15.6533126 20.783,15.9936346 C20.8728471,16.4148544 21.1009359,16.7939464 21.431,17.0706346 C21.664162,17.2629845 21.9432652,17.3915098 22.241,17.4436346 C22.5609336,17.5087824 22.8865036,17.5422772 23.213,17.5436346 L23.834,17.5436346 C24.4643979,17.5721178 25.0916056,17.4388964 25.656,17.1566346 C26.0926673,16.9163847 26.4888393,16.6089633 26.83,16.2456346 C27.4021334,15.662139 27.8843985,14.9968759 28.261,14.2716346 C28.5998782,13.6294298 28.9062647,12.9705987 29.179,12.2976346 L29.449,12.2976346 L28.855,18.1506346 L14.845,18.1506346 L14.847,17.8436346 Z" id="Trazado_3"></path>
                <path d="M39.386,12.6526346 C39.386,13.4813012 39.4086667,14.2223012 39.454,14.8756346 C39.4792911,15.4238099 39.5743917,15.9665216 39.737,16.4906346 C39.8340349,16.7949685 40.0059623,17.0700524 40.237,17.2906346 C40.4519702,17.4799831 40.7049668,17.621143 40.979,17.7046346 C41.123,17.7416346 41.267,17.7736346 41.411,17.8046346 C41.555,17.8356346 41.699,17.8556346 41.843,17.8736346 L41.843,18.1496346 L33.743,18.1496346 L33.743,17.8736346 C34.0433002,17.8377773 34.3409349,17.7823257 34.634,17.7076346 C34.8979375,17.6195389 35.1412009,17.4786843 35.349,17.2936346 C35.5796392,17.0727281 35.751499,16.7977524 35.849,16.4936346 C36.0111239,15.9694046 36.1062136,15.4267552 36.132,14.8786346 C36.1766667,14.2253012 36.1993333,13.4843012 36.2,12.6556346 L36.2,5.50563458 C36.2,4.67696791 36.1773333,3.93596791 36.132,3.28263458 C36.1060324,2.734534 36.0109467,2.19190725 35.849,1.66763458 C35.751499,1.36351671 35.5796392,1.08854109 35.349,0.867634578 C35.140796,0.683145483 34.8976529,0.542360541 34.634,0.453634578 C34.3402296,0.382186508 34.0427902,0.326771311 33.743,0.287634578 L33.743,0.011634578 L41.843,0.011634578 L41.843,0.287634578 C41.699,0.305634578 41.555,0.328634578 41.411,0.356634578 C41.267,0.383634578 41.123,0.416634578 40.979,0.456634578 C40.7076854,0.539676294 40.4555015,0.675624527 40.237,0.856634578 C39.9999076,1.07825772 39.8271455,1.35985999 39.737,1.67163458 C39.5745293,2.1957808 39.4794318,2.73847473 39.454,3.28663458 C39.4086667,3.94063458 39.386,4.68163458 39.386,5.50963458 L39.386,12.6526346 Z" id="Trazado_4"></path>
                <path d="M57.334,18.3366346 L47.02,3.21063458 L46.912,3.21063458 L46.912,13.5616346 C46.8970422,14.2125595 46.9375216,14.8635764 47.033,15.5076346 C47.0993647,15.8927587 47.212885,16.2682489 47.371,16.6256346 C47.5904447,17.1250501 48.0129578,17.506804 48.532,17.6746346 C48.6710559,17.728737 48.8160873,17.766002 48.964,17.7856346 C49.108,17.8043012 49.279,17.8319679 49.477,17.8686346 L49.477,18.1446346 L43.565,18.1446346 L43.565,17.8686346 C43.8944899,17.852529 44.2208404,17.7967943 44.537,17.7026346 C45.0484447,17.5326196 45.4617316,17.150311 45.671,16.6536346 C45.8322138,16.2889876 45.9587712,15.909985 46.049,15.5216346 C46.1755276,14.8763318 46.2298618,14.2189542 46.211,13.5616346 L46.211,5.94263458 C46.2237868,5.12007782 46.1648975,4.29797056 46.035,3.48563458 C45.9561692,2.97394904 45.8158193,2.47365891 45.617,1.99563458 C45.4581849,1.66339393 45.2328694,1.36728447 44.955,1.12563458 C44.6649166,0.863405099 44.3316742,0.653310141 43.97,0.504634578 C43.7077896,0.381829406 43.4225098,0.316048033 43.133,0.311634578 L43.133,0.011634578 L48.933,0.011634578 L57.382,12.7116346 L57.463,12.7116346 L57.463,4.59663458 C57.4788425,3.94052924 57.433648,3.28437194 57.328,2.63663458 C57.2541191,2.24725815 57.1363684,1.86750384 56.977,1.50463458 C56.847211,1.24729285 56.6685529,1.01768668 56.451,0.828634578 C56.2574632,0.661330864 56.0323661,0.534501255 55.789,0.455634578 C55.4831755,0.356934119 55.1651536,0.301069955 54.844,0.289634578 L54.844,0.013634578 L60.756,0.013634578 L60.756,0.289634578 C60.4323634,0.300159649 60.1128461,0.365415563 59.811,0.482634578 C59.2830467,0.634744444 58.8547055,1.02176424 58.65,1.53163458 C58.4923802,1.88912155 58.3792019,2.26459141 58.313,2.64963458 C58.2169744,3.29364169 58.1761592,3.94467694 58.191,4.59563458 L58.191,18.3416346 L57.334,18.3366346 Z" id="Trazado_5"></path>
                <path d="M70.169,0.00863457799 C70.9753781,-0.00238162881 71.7793828,0.0985817037 72.558,0.308634578 C73.2278029,0.494541147 73.8750515,0.753775935 74.488,1.08163458 C75.7428032,1.79399435 76.7754167,2.84045446 77.471,4.10463458 C78.990739,7.2313646 79.0006807,10.8806707 77.498,14.0156346 C76.8179482,15.2822564 75.7930645,16.3303699 74.542,17.0386346 C73.9468936,17.3678864 73.317897,17.6317566 72.666,17.8256346 C71.9435515,18.0414155 71.1929639,18.1482571 70.439,18.1426346 L61.207,18.1426346 L61.207,17.8426346 L61.652,17.7876346 C61.8019956,17.7697739 61.9506511,17.7420472 62.097,17.7046346 C62.3709122,17.6208587 62.6238515,17.4797308 62.839,17.2906346 C63.0696722,17.0697549 63.2415376,16.7947704 63.339,16.4906346 C63.5032767,15.9662484 63.6039976,15.4240346 63.639,14.8756346 C63.693,14.2223012 63.72,13.4813012 63.72,12.6526346 L63.72,5.50263458 C63.72,4.67396791 63.693,3.92863458 63.639,3.26663458 C63.6066867,2.722807 63.5058908,2.18522887 63.339,1.66663458 C63.241499,1.36251671 63.0696392,1.08754109 62.839,0.866634578 C62.6234487,0.678109312 62.3706378,0.537053114 62.097,0.452634578 C61.8054101,0.371419901 61.5072732,0.315874749 61.206,0.286634578 L61.206,0.010634578 L70.169,0.00863457799 Z M69.98,17.5406346 C71.1845295,17.5299338 72.333438,17.0321336 73.165,16.1606346 C73.8522102,15.3792659 74.3673644,14.4620734 74.677,13.4686346 C75.4416526,10.5768035 75.4323412,7.53473046 74.65,4.64763458 C74.334845,3.6466397 73.8102192,2.72419827 73.111,1.94163458 C72.6850551,1.47937487 72.1521188,1.12877693 71.559,0.920634578 C70.9995376,0.723935909 70.4110303,0.622527403 69.818,0.620634385 L68.873,0.620634385 C68.6233457,0.620634385 68.3744652,0.648389643 68.131,0.703634578 C67.9060696,0.749289807 67.6968857,0.852675617 67.524,1.00363458 C67.3485049,1.14535093 67.2136109,1.33095961 67.133,1.54163458 C67.04852,1.76764188 66.9898152,2.00246106 66.958,2.24163458 C66.9213054,2.50670944 66.9032611,2.77403295 66.9039782,3.04163458 L66.9039782,14.5266346 C66.9041207,14.8408602 66.926846,15.1546701 66.972,15.4656346 C67.0127416,15.7635298 67.089642,16.0553483 67.201,16.3346346 C67.3012049,16.5910062 67.4691895,16.8153313 67.687,16.9836346 C67.9029153,17.1966152 68.1741556,17.3448794 68.47,17.4116346 C68.7967855,17.4948932 69.1327762,17.536556 69.47,17.5356346 L69.98,17.5406346 Z" id="Trazado_6"></path>
                <path d="M93.543,18.1476346 L79.613,18.1476346 L79.613,17.8716346 C79.9142782,17.8424299 80.2124182,17.7868842 80.504,17.7056346 C80.7779484,17.6219436 81.0309048,17.4808062 81.246,17.2916346 C81.476871,17.0709167 81.6487701,16.7958782 81.746,16.4916346 C81.9084813,15.9674909 82.003579,15.4247956 82.029,14.8766346 C82.0743333,14.2233012 82.097,13.4823012 82.097,12.6536346 L82.097,5.50363458 C82.097,4.67496791 82.0743333,3.93396791 82.029,3.28063458 C82.0034388,2.73248902 81.9083442,2.18981135 81.746,1.66563458 C81.6556259,1.35396098 81.4828988,1.07241571 81.246,0.850634578 C81.0273804,0.669799909 80.775233,0.533871418 80.504,0.450634578 C80.2124182,0.36938495 79.9142782,0.313839222 79.613,0.284634578 L79.613,0.00863457799 L92.84,0.00863457799 L93.54,5.19963458 L93.216,5.19963458 C92.9761216,4.52592924 92.6685485,3.87828344 92.298,3.26663458 C91.9419249,2.68348135 91.5157506,2.14614581 91.029,1.66663458 C90.7189424,1.36249519 90.3582007,1.11478138 89.963,0.934634578 C89.4582735,0.709584318 88.9094029,0.600903843 88.357,0.616634578 L87.493,0.616634578 C87.2343741,0.615548692 86.9764379,0.643388362 86.724,0.699634578 C86.4867973,0.75190145 86.2676892,0.866113743 86.089,1.03063458 C85.8905429,1.1973428 85.7296745,1.40422226 85.617,1.63763458 C85.4967411,1.88729304 85.4106346,2.15200302 85.361,2.42463458 C85.3065766,2.71169594 85.274812,3.00259266 85.266,3.29463458 C85.2573333,3.58930124 85.253,3.86530124 85.253,4.12263458 L85.253,8.42963458 L86.333,8.42963458 C86.8712975,8.44699057 87.4098707,8.40507173 87.939,8.30463458 C88.2739187,8.22101735 88.5781092,8.0437752 88.816,7.79363458 C89.187867,7.4448978 89.4742904,7.01509167 89.653,6.53763458 C89.8402823,6.07273247 89.9673136,5.58577908 90.031,5.08863458 L90.331,5.08863458 L90.331,12.3776346 L90.031,12.3776346 C89.9672344,11.8966115 89.8494922,11.4243011 89.68,10.9696346 C89.5222581,10.5067108 89.2534078,10.0895293 88.897,9.75463458 C88.6193248,9.53776572 88.3096281,9.36537465 87.979,9.24363458 C87.4458089,9.08127622 86.888785,9.01126776 86.332,9.03663458 L85.252,9.03663458 L85.252,13.5646346 C85.252,13.8593012 85.2563333,14.1719679 85.265,14.5026346 C85.2737382,14.8305543 85.3007803,15.1577302 85.346,15.4826346 C85.3856192,15.7852869 85.462537,16.0818738 85.575,16.3656346 C85.6752049,16.6220062 85.8431895,16.8463313 86.061,17.0146346 C86.300886,17.2206136 86.5887077,17.3629771 86.898,17.4286346 C87.2347745,17.5038768 87.5789257,17.5411095 87.924,17.5396346 L88.491,17.5396346 C89.1164753,17.562125 89.7390466,17.4442397 90.313,17.1946346 C90.78077,16.9703754 91.2055479,16.6657538 91.568,16.2946346 C92.1217643,15.7336964 92.5931295,15.0970166 92.968,14.4036346 C93.3091026,13.7717729 93.6155559,13.1218113 93.886,12.4566346 L94.156,12.4566346 L93.543,18.1476346 Z" id="Trazado_7"></path>
                <path d="M103.196,18.1476346 L94.881,18.1476346 L94.881,17.8716346 L95.327,17.8166346 C95.4710084,17.8008516 95.6118767,17.763781 95.745,17.7066346 C96.021243,17.621286 96.274808,17.4750248 96.487,17.2786346 C96.7074789,17.0655026 96.8782053,16.8063398 96.987,16.5196346 C97.1535596,15.933916 97.2578043,15.3322468 97.298,14.7246346 C97.3606667,13.9913012 97.392,13.1629679 97.392,12.2396346 L97.392,5.88963458 C97.392,4.96963458 97.3606667,4.14130124 97.298,3.40463458 C97.2597599,2.80597431 97.1554598,2.21337559 96.987,1.63763458 C96.8781464,1.35095941 96.707428,1.09180879 96.487,0.878634578 C96.2746261,0.682491254 96.0211203,0.536264181 95.745,0.450634578 C95.6035513,0.411034037 95.4590528,0.383271598 95.313,0.367634578 C95.151,0.349634578 94.998,0.331634578 94.854,0.312634578 L94.854,0.012634578 L103.171,0.012634578 C104.786319,-0.0785070513 106.391022,0.32511068 107.771,1.16963458 C108.897568,1.97731605 109.52566,3.31068698 109.431,4.69363458 C109.439889,5.54000123 109.230854,6.37441812 108.824,7.11663458 C108.466828,7.79742291 107.929649,8.367117 107.271,8.76363458 C106.640767,9.0903186 105.967399,9.32599728 105.271,9.46363458 C104.231719,9.67508056 103.172396,9.77199241 102.112,9.75263458 C101.95,9.75263458 101.698,9.74330124 101.356,9.72463458 C101.084529,9.71395173 100.813996,9.6862305 100.546,9.64163458 L100.546,12.2176346 C100.546,13.1409679 100.577333,13.9763012 100.64,14.7236346 C100.676938,15.3289316 100.780907,15.9282633 100.95,16.5106346 C101.051979,16.8053879 101.223487,17.0712254 101.45,17.2856346 C101.665128,17.4749892 101.918051,17.6164489 102.192,17.7006346 C102.347206,17.7627996 102.511196,17.8002542 102.678,17.8116346 C102.878,17.8303012 103.049,17.8486346 103.191,17.8666346 L103.196,18.1476346 Z M102.71,0.616634578 C102.601583,0.619626882 102.493417,0.628640774 102.386,0.643634578 L101.954,0.671634578 C101.813597,0.671311404 101.673532,0.685384996 101.536,0.713634578 C101.440402,0.731099102 101.345908,0.754138419 101.253,0.782634578 C101.094925,0.856192532 100.959785,0.971285849 100.862,1.11563458 C100.774279,1.26283653 100.706995,1.42128996 100.662,1.58663458 C100.624775,1.77907366 100.597737,1.97334411 100.581,2.16863458 C100.563,2.36863458 100.554,2.68230124 100.554,3.10963458 L100.554,9.00963458 C100.82181,9.05879242 101.092276,9.09218322 101.364,9.10963458 C101.724,9.13696791 102.003,9.15096791 102.201,9.15163458 C102.607594,9.15744276 103.013973,9.12968185 103.416,9.06863458 C103.705086,9.02381785 103.986691,8.93970638 104.253,8.81863458 C104.474385,8.71721631 104.675618,8.57662365 104.847,8.40363458 C105.014386,8.23137525 105.167866,8.0461294 105.306,7.84963458 C105.44263,7.64309845 105.551561,7.41952229 105.63,7.18463458 C105.720417,6.92336385 105.792263,6.65603168 105.845,6.38463458 C105.899667,6.10730124 105.940333,5.83030124 105.967,5.55363458 C105.993667,5.27696791 106.007333,5.01863458 106.008,4.77863458 C106.062398,3.71850406 105.809241,2.6652436 105.279,1.74563458 C104.683592,0.940203016 103.705983,0.510572496 102.71,0.616634578 Z" id="Trazado_8"></path>
                <path d="M123.802,18.1476346 L109.872,18.1476346 L109.872,17.8716346 C110.173265,17.8423388 110.471397,17.7867945 110.763,17.7056346 C111.036888,17.6218022 111.289816,17.4806806 111.505,17.2916346 C111.735771,17.0708357 111.907654,16.7958242 112.005,16.4916346 C112.167271,15.96744 112.262364,15.4247718 112.288,14.8766346 C112.332667,14.2233012 112.355333,13.4823012 112.356,12.6536346 L112.356,5.50363458 C112.356,4.67496791 112.333333,3.93396791 112.288,3.28063458 C112.262214,2.73251392 112.167124,2.18986451 112.005,1.66563458 C111.914535,1.35400123 111.741822,1.07247863 111.505,0.850634578 C111.286307,0.669908863 111.034182,0.533992596 110.763,0.450634578 C110.471397,0.369474635 110.173265,0.313930382 109.872,0.284634578 L109.872,0.00863457799 L123.1,0.00863457799 L123.8,5.19963458 L123.476,5.19963458 C123.235818,4.5260551 122.928259,3.87843931 122.558,3.26663458 C122.201785,2.68357906 121.775624,2.14625985 121.289,1.66663458 C120.978969,1.36246347 120.618221,1.11474562 120.223,0.934634578 C119.718263,0.709617061 119.1694,0.600938077 118.617,0.616634578 L117.753,0.616634578 C117.494374,0.615548692 117.236438,0.643388362 116.984,0.699634578 C116.746814,0.75194665 116.527717,0.866153101 116.349,1.03063458 C116.150433,1.19723682 115.989545,1.40414173 115.877,1.63763458 C115.756685,1.88727035 115.670576,2.15198812 115.621,2.42463458 C115.566803,2.7117297 115.535041,3.00260861 115.526,3.29463458 C115.516667,3.58930124 115.512333,3.86530124 115.513,4.12263458 L115.513,8.42963458 L116.593,8.42963458 C117.131297,8.44697436 117.669869,8.40505567 118.199,8.30463458 C118.533877,8.22091417 118.83804,8.04368783 119.076,7.79363458 C119.447647,7.44471119 119.734033,7.01496007 119.913,6.53763458 C120.100492,6.07280162 120.22753,5.58582095 120.291,5.08863458 L120.591,5.08863458 L120.591,12.3776346 L120.291,12.3776346 C120.227285,11.896602 120.109541,11.424286 119.94,10.9696346 C119.782619,10.5067769 119.514107,10.089588 119.158,9.75463458 C118.880325,9.53776572 118.570628,9.36537465 118.24,9.24363458 C117.706801,9.08131474 117.149783,9.01130711 116.593,9.03663458 L115.517,9.03663458 L115.517,13.5646346 C115.517,13.8593012 115.521333,14.1719679 115.53,14.5026346 C115.538874,14.8305468 115.565916,15.1577152 115.611,15.4826346 C115.650457,15.7853184 115.72738,16.081925 115.84,16.3656346 C115.940161,16.6220308 116.108153,16.8463669 116.326,17.0146346 C116.565838,17.2206857 116.853679,17.3630587 117.163,17.4286346 C117.499775,17.5038768 117.843926,17.5411095 118.189,17.5396346 L118.756,17.5396346 C119.381478,17.562159 120.004057,17.4442723 120.578,17.1946346 C121.045717,16.9702861 121.47048,16.6656751 121.833,16.2946346 C122.386754,15.7336876 122.858118,15.0970093 123.233,14.4036346 C123.57405,13.7717462 123.880502,13.1217875 124.151,12.4566346 L124.421,12.4566346 L123.802,18.1476346 Z" id="Trazado_9"></path>
                <path d="M139.306,18.3366346 L128.994,3.21063458 L128.886,3.21063458 L128.886,13.5616346 C128.871086,14.2125587 128.911565,14.8635719 129.007,15.5076346 C129.073562,15.8927121 129.187075,16.2681786 129.345,16.6256346 C129.564445,17.1250501 129.986958,17.506804 130.506,17.6746346 C130.645071,17.7286914 130.790096,17.765955 130.938,17.7856346 C131.082,17.8046346 131.252,17.8316346 131.451,17.8686346 L131.451,18.1446346 L125.539,18.1446346 L125.539,17.8686346 C125.868482,17.8524615 126.194825,17.7967281 126.511,17.7026346 C127.022066,17.5323735 127.434952,17.1500989 127.644,16.6536346 C127.805458,16.2890823 127.932024,15.9100563 128.022,15.5216346 C128.148717,14.8763581 128.203053,14.2189593 128.184,13.5616346 L128.184,5.94263458 C128.197097,5.12010748 128.138543,4.29800215 128.009,3.48563458 C127.929838,2.97390852 127.789153,2.47361824 127.59,1.99563458 C127.431479,1.6632147 127.20612,1.36704922 126.928,1.12563458 C126.638076,0.863195462 126.304795,0.653076283 125.943,0.504634578 C125.6808,0.381800538 125.395513,0.316017718 125.106,0.311634578 L125.106,0.011634578 L130.906,0.011634578 L139.356,12.7116346 L139.437,12.7116346 L139.437,4.59663458 C139.4529,3.94052795 139.407705,3.28436529 139.302,2.63663458 C139.228438,2.24717869 139.110677,1.86738871 138.951,1.50463458 C138.821473,1.24712743 138.642778,1.01747379 138.425,0.828634578 C138.231448,0.661353081 138.006355,0.534526131 137.763,0.455634578 C137.457499,0.357012432 137.139818,0.301149059 136.819,0.289634578 L136.819,0.013634578 L142.731,0.013634578 L142.731,0.289634578 C142.407366,0.300178838 142.087852,0.3654341 141.786,0.482634578 C141.258122,0.634879309 140.829832,1.02185253 140.625,1.53163458 C140.467352,1.88911106 140.354172,2.26458446 140.288,2.64963458 C140.192202,3.29366569 140.151388,3.94468151 140.166,4.59563458 L140.166,18.3416346 L139.306,18.3366346 Z" id="Trazado_10"></path>
                <path d="M152.139,0.00863457799 C152.945372,-0.00227838431 153.749363,0.098683165 154.528,0.308634578 C155.197782,0.494602875 155.845024,0.753834995 156.458,1.08163458 C157.712803,1.79399435 158.745417,2.84045446 159.441,4.10463458 C160.960739,7.2313646 160.970681,10.8806707 159.468,14.0156346 C158.787948,15.2822564 157.763064,16.3303699 156.512,17.0386346 C155.916918,17.3679359 155.287916,17.6318083 154.636,17.8256346 C153.913555,18.0414301 153.162965,18.1482721 152.409,18.1426346 L143.177,18.1426346 L143.177,17.8426346 L143.622,17.7876346 C143.771992,17.7697482 143.920646,17.7420218 144.067,17.7046346 C144.340888,17.6208022 144.593816,17.4796806 144.809,17.2906346 C145.039606,17.0697013 145.21146,16.7947346 145.309,16.4906346 C145.473052,15.9661927 145.573768,15.424006 145.609,14.8756346 C145.663,14.2223012 145.69,13.4813012 145.69,12.6526346 L145.69,5.50263458 C145.69,4.67396791 145.663,3.92863458 145.609,3.26663458 C145.576444,2.72283688 145.475654,2.18528898 145.309,1.66663458 C145.211422,1.36255248 145.039573,1.08759469 144.809,0.866634578 C144.593431,0.678133844 144.340626,0.537080706 144.067,0.452634578 C143.775397,0.371474635 143.477265,0.315930382 143.176,0.286634578 L143.176,0.010634578 L152.139,0.00863457799 Z M151.949,17.5406346 C153.153902,17.5303175 154.303264,17.0324772 155.135,16.1606346 C155.822357,15.3793701 156.33753,14.4621447 156.647,13.4686346 C157.411745,10.576861 157.402779,7.53484974 156.621,4.64763458 C156.305676,3.64671333 155.78107,2.7243058 155.082,1.94163458 C154.656162,1.47924932 154.123192,1.1286293 153.53,0.920634578 C152.970566,0.723825568 152.38204,0.622413822 151.789,0.620634027 L150.844,0.620634027 C150.594342,0.620634027 150.345455,0.648331681 150.102,0.703634578 C149.876776,0.749301405 149.667271,0.85267536 149.494,1.00363458 C149.318643,1.14548247 149.183779,1.33105069 149.103,1.54163458 C149.018714,1.76770215 148.960015,2.00249921 148.928,2.24163458 C148.891354,2.50671448 148.87331,2.77403455 148.873981,3.04163458 L148.873981,14.5266346 C148.873682,14.84084 148.896074,15.1546575 148.941,15.4656346 C148.982109,15.7634564 149.058998,16.0552311 149.17,16.3346346 C149.270249,16.5909816 149.438226,16.8152958 149.656,16.9836346 C149.871851,17.1967018 150.143118,17.3449803 150.439,17.4116346 C150.765774,17.4949563 151.101772,17.5366201 151.439,17.5356346 L151.949,17.5406346 Z" id="Trazado_11"></path>
                <path d="M167.074,12.6526346 C167.074,13.4813012 167.096667,14.2223012 167.142,14.8756346 C167.16728,15.4238111 167.262381,15.9665242 167.425,16.4906346 C167.522191,16.7948962 167.694096,17.0699438 167.925,17.2906346 C168.139934,17.4800339 168.392942,17.6212002 168.667,17.7046346 C168.811,17.7416346 168.954,17.7736346 169.099,17.8046346 C169.244,17.8356346 169.387,17.8556346 169.531,17.8736346 L169.531,18.1496346 L161.431,18.1496346 L161.431,17.8736346 C161.730966,17.8377456 162.028266,17.7822941 162.321,17.7076346 C162.585292,17.6196617 162.828906,17.478801 163.037,17.2936346 C163.267606,17.0727013 163.43946,16.7977346 163.537,16.4936346 C163.699286,15.9694057 163.794708,15.4267781 163.821,14.8786346 C163.865667,14.2253012 163.888,13.4843012 163.888,12.6556346 L163.888,5.50563458 C163.888,4.67696791 163.865667,3.93596791 163.821,3.28263458 C163.79457,2.73450647 163.699151,2.19189603 163.537,1.66763458 C163.43946,1.3635346 163.267606,1.08856791 163.037,0.867634578 C162.828501,0.683030237 162.585007,0.542239337 162.321,0.453634578 C162.027559,0.382220154 161.730455,0.326805115 161.431,0.287634578 L161.431,0.011634578 L169.531,0.011634578 L169.531,0.287634578 C169.387,0.305634578 169.243,0.328634578 169.099,0.356634578 C168.955,0.383634578 168.811,0.416634578 168.667,0.456634578 C168.395655,0.539602727 168.143457,0.675558421 167.925,0.856634578 C167.687908,1.07825772 167.515146,1.35985999 167.425,1.67163458 C167.262529,2.1957808 167.167432,2.73847473 167.142,3.28663458 C167.096,3.94063458 167.073333,4.68163458 167.074,5.50963458 L167.074,12.6526346 Z" id="Trazado_12"></path>
                <path d="M184.019,18.1476346 L170.088,18.1476346 L170.088,17.8716346 C170.389265,17.8423388 170.687397,17.7867945 170.979,17.7056346 C171.252876,17.621774 171.505798,17.4806556 171.721,17.2916346 C171.951771,17.0708357 172.123654,16.7958242 172.221,16.4916346 C172.383578,15.9674765 172.479007,15.4248114 172.505,14.8766346 C172.549667,14.2233012 172.572333,13.4823012 172.573,12.6536346 L172.573,5.50363458 C172.573,4.67496791 172.550333,3.93396791 172.505,3.28063458 C172.478889,2.7324709 172.383463,2.18982057 172.221,1.66563458 C172.130489,1.35402133 171.957783,1.07251003 171.721,0.850634578 C171.502292,0.669930593 171.250172,0.534016761 170.979,0.450634578 C170.687397,0.369474635 170.389265,0.313930382 170.088,0.284634578 L170.088,0.00863457799 L183.315,0.00863457799 L184.015,5.19963458 L183.691,5.19963458 C183.450673,4.52611503 183.143121,3.87851347 182.773,3.26663458 C182.4169,2.68349862 181.990728,2.14616597 181.504,1.66663458 C181.193942,1.36249519 180.833201,1.11478138 180.438,0.934634578 C179.932947,0.709502523 179.383733,0.600821737 178.831,0.616634578 L177.968,0.616634578 C177.709375,0.615557055 177.451439,0.643396624 177.199,0.699634578 C176.961797,0.75190145 176.742689,0.866113743 176.564,1.03063458 C176.365477,1.19727929 176.204597,1.40417399 176.092,1.63763458 C175.971764,1.8873021 175.885658,2.15200897 175.836,2.42463458 C175.781474,2.71168062 175.749708,3.00258547 175.741,3.29463458 C175.732333,3.58930124 175.727667,3.86530124 175.727,4.12263458 L175.727,8.42963458 L176.807,8.42963458 C177.345297,8.44695007 177.883865,8.40503158 178.413,8.30463458 C178.747898,8.22096573 179.052075,8.04373149 179.29,7.79363458 C179.662005,7.44501494 179.948452,7.01517422 180.127,6.53763458 C180.314116,6.07267753 180.441142,5.58574575 180.505,5.08863458 L180.805,5.08863458 L180.805,12.3776346 L180.505,12.3776346 C180.441085,11.8966401 180.323347,11.4243462 180.154,10.9696346 C179.996295,10.5066929 179.727439,10.089503 179.371,9.75463458 C179.093325,9.53776572 178.783628,9.36537465 178.453,9.24363458 C177.920128,9.08138949 177.363452,9.01138225 176.807,9.03663458 L175.727,9.03663458 L175.727,13.5646346 C175.727,13.8593012 175.731667,14.1719679 175.741,14.5026346 C175.74986,14.8305476 175.776901,15.1577168 175.822,15.4826346 C175.86172,15.7852674 175.938634,16.081842 176.051,16.3656346 C176.151293,16.621957 176.319262,16.8462603 176.537,17.0146346 C176.776838,17.2206857 177.064679,17.3630587 177.374,17.4286346 C177.710439,17.5038606 178.054257,17.5410936 178.399,17.5396346 L178.966,17.5396346 C179.59148,17.5621931 180.214067,17.4443049 180.788,17.1946346 C181.256115,16.9704578 181.681235,16.6658333 182.044,16.2946346 C182.597816,15.7337404 183.069187,15.0970529 183.444,14.4036346 C183.785053,13.771748 184.091505,13.1217891 184.362,12.4566346 L184.632,12.4566346 L184.019,18.1476346 Z" id="Trazado_13"></path>
                <path d="M200.35,18.3366346 L190.038,3.21063458 L189.93,3.21063458 L189.93,13.5616346 C189.915184,14.2125917 189.955999,14.8636249 190.052,15.5076346 C190.118113,15.8926986 190.231295,16.2681791 190.389,16.6256346 C190.608445,17.1250501 191.030958,17.506804 191.55,17.6746346 C191.68875,17.7286147 191.833436,17.7658772 191.981,17.7856346 C192.125,17.8046346 192.297,17.8316346 192.494,17.8686346 L192.494,18.1446346 L186.583,18.1446346 L186.583,17.8686346 C186.91249,17.852529 187.23884,17.7967943 187.555,17.7026346 C188.066513,17.5327347 188.479841,17.1503877 188.689,16.6536346 C188.850397,16.2890585 188.97696,15.9100384 189.067,15.5216346 C189.193758,14.8763639 189.248095,14.2189605 189.229,13.5616346 L189.229,5.94263458 C189.241761,5.12007853 189.182872,4.29797347 189.053,3.48563458 C188.97415,2.97395318 188.833801,2.47366531 188.635,1.99563458 C188.476576,1.66342503 188.251592,1.36730391 187.974,1.12563458 C187.683953,0.863356863 187.350702,0.653256341 186.989,0.504634578 C186.72681,0.381771642 186.441517,0.315987371 186.152,0.311634578 L186.152,0.011634578 L191.952,0.011634578 L200.402,12.7116346 L200.482,12.7116346 L200.482,4.59663458 C200.497773,3.94053079 200.452579,3.28437991 200.347,2.63663458 C200.272527,2.24740591 200.154796,1.86771709 199.996,1.50463458 C199.866363,1.24719656 199.687684,1.0175628 199.47,0.828634578 C199.276416,0.661397447 199.051333,0.534575799 198.808,0.455634578 C198.50216,0.356996554 198.184147,0.301133926 197.863,0.289634578 L197.863,0.013634578 L203.775,0.013634578 L203.775,0.289634578 C203.451363,0.300159649 203.131846,0.365415563 202.83,0.482634578 C202.302122,0.634879309 201.873832,1.02185253 201.669,1.53163458 C201.511366,1.88919826 201.397864,2.26462857 201.331,2.64963458 C201.235904,3.29373287 201.195427,3.94471722 201.21,4.59563458 L201.21,18.3416346 L200.35,18.3366346 Z" id="Trazado_14"></path>
                <path d="M213.119,12.6816346 C213.119,13.5096346 213.141333,14.2459679 213.186,14.8906346 C213.210032,15.425539 213.305202,15.9548597 213.469,16.4646346 C213.561446,16.7791469 213.733694,17.06439 213.969,17.2926346 C214.184042,17.4818819 214.437015,17.6230289 214.711,17.7066346 C214.853131,17.7432708 214.997412,17.7709914 215.143,17.7896346 L215.575,17.8446346 L215.575,18.1446346 L207.449,18.1446346 L207.449,17.8446346 L207.881,17.7896346 C208.02658,17.7709403 208.170858,17.7432202 208.313,17.7066346 C208.586852,17.6227176 208.839763,17.4816056 209.055,17.2926346 C209.289985,17.0641348 209.462179,16.7789816 209.555,16.4646346 C209.720237,15.9545288 209.821019,15.4257575 209.855,14.8906346 C209.909,14.2466346 209.936,13.5103012 209.936,12.6816346 L209.936,0.616634578 L209.072,0.616634578 C208.514311,0.610207202 207.960376,0.708579051 207.439,0.906634578 C206.891084,1.13596675 206.398439,1.47962499 205.994,1.91463458 C205.437565,2.42403905 204.968053,3.02089367 204.604,3.68163458 C204.253333,4.32630124 203.97,4.88763458 203.754,5.36563458 L203.454,5.36563458 L204.237,0.00963457799 L218.787,0.00963457799 L219.57,5.36563458 L219.27,5.36563458 C219.023468,4.79098995 218.739526,4.23312687 218.42,3.69563458 C218.041513,3.0487713 217.573558,2.45860904 217.03,1.94263458 C216.623282,1.50744476 216.131887,1.15999782 215.586,0.921634578 C215.066517,0.715825447 214.511713,0.613901705 213.953,0.621634578 L213.116,0.621634578 L213.119,12.6816346 Z" id="Trazado_15"></path>
                <path d="M233.149,18.1476346 L219.219,18.1476346 L219.219,17.8716346 C219.520265,17.8423388 219.818397,17.7867945 220.11,17.7056346 C220.383876,17.621774 220.636798,17.4806556 220.852,17.2916346 C221.082805,17.0708626 221.254692,16.7958422 221.352,16.4916346 C221.514715,15.9675095 221.610146,15.4248269 221.636,14.8766346 C221.680667,14.2233012 221.703333,13.4823012 221.704,12.6536346 L221.704,5.50363458 C221.704,4.67496791 221.681333,3.93396791 221.636,3.28063458 C221.610007,2.73245779 221.514578,2.1897927 221.352,1.66563458 C221.261535,1.35400123 221.088822,1.07247863 220.852,0.850634578 C220.633292,0.669930593 220.381172,0.534016761 220.11,0.450634578 C219.818397,0.369474635 219.520265,0.313930382 219.219,0.284634578 L219.219,0.00863457799 L232.447,0.00863457799 L233.147,5.19963458 L232.823,5.19963458 C232.58278,4.52607076 232.275223,3.87845869 231.905,3.26663458 C231.548941,2.68346983 231.122766,2.14613236 230.636,1.66663458 C229.927159,0.964902794 228.960923,0.585568208 227.964,0.617634578 L227.1,0.617634578 C226.841374,0.616548692 226.583438,0.644388362 226.331,0.700634578 C226.094054,0.752794762 225.875242,0.867032351 225.697,1.03163458 C225.498005,1.19807076 225.336758,1.40499855 225.224,1.63863458 C225.103548,1.88821556 225.017433,2.15295217 224.968,2.42563458 C224.913771,2.71272492 224.882008,3.00360635 224.873,3.29563458 C224.863667,3.59030124 224.859,3.86630124 224.859,4.12363458 L224.859,8.43063458 L225.939,8.43063458 C226.477298,8.44799867 227.015872,8.40607977 227.545,8.30563458 C227.880173,8.22193431 228.184664,8.04471938 228.423,7.79463458 C228.794564,7.44564146 229.080937,7.01591087 229.26,6.53863458 C229.447157,6.07369123 229.574184,5.58675407 229.638,5.08963458 L229.938,5.08963458 L229.938,12.3786346 L229.638,12.3786346 C229.574343,11.8975908 229.456598,11.4252683 229.287,10.9706346 C229.12948,10.5076034 228.860597,10.0903714 228.504,9.75563458 C228.226442,9.53858894 227.916717,9.36618184 227.586,9.24463458 C227.053128,9.08238949 226.496452,9.01238225 225.94,9.03763458 L224.86,9.03763458 L224.86,13.5656346 C224.86,13.8603012 224.864667,14.1729679 224.874,14.5036346 C224.882502,14.8315671 224.909546,15.1587563 224.955,15.4836346 C224.994619,15.7862869 225.071537,16.0828738 225.184,16.3666346 C225.284482,16.6231245 225.452822,16.8474619 225.671,17.0156346 C225.91079,17.221758 226.198651,17.3641406 226.508,17.4296346 C226.844765,17.5049351 227.188923,17.5421685 227.534,17.5406346 L228.101,17.5406346 C228.726486,17.5632611 229.349087,17.4453701 229.923,17.1956346 C230.390781,16.9713933 230.815561,16.6667696 231.178,16.2956346 C231.73158,15.7345384 232.202925,15.0978862 232.578,14.4046346 C232.918763,13.7727513 233.224882,13.1227901 233.495,12.4576346 L233.765,12.4576346 L233.149,18.1476346 Z" id="Trazado_16"></path>
            </g>
            <g id="Grupo_3" transform="translate(0, 0.0906)">
                <rect id="Rectángulo_2" fill="#010002" transform="translate(15.0065, 2.648) rotate(-180) translate(-15.0065, -2.648)" x="12.359" y="-4.4408921e-16" width="5.295" height="5.296" rx="0.902"></rect>
                <rect id="Rectángulo_3" fill="#008192" transform="translate(8.8275, 2.648) rotate(-180) translate(-8.8275, -2.648)" x="6.18" y="-4.4408921e-16" width="5.295" height="5.296" rx="0.902"></rect>
                <rect id="Rectángulo_4" fill="#008192" transform="translate(2.6475, 2.648) rotate(-180) translate(-2.6475, -2.648)" x="4.4408921e-16" y="-4.4408921e-16" width="5.295" height="5.296" rx="0.902"></rect>
                <rect id="Rectángulo_5" fill="#008192" transform="translate(15.0065, 9.029) rotate(-180) translate(-15.0065, -9.029)" x="12.359" y="6.381" width="5.295" height="5.296" rx="0.902"></rect>
                <rect id="Rectángulo_6" fill="#008192" transform="translate(8.8275, 9.029) rotate(-180) translate(-8.8275, -9.029)" x="6.18" y="6.381" width="5.295" height="5.296" rx="0.902"></rect>
                <rect id="Rectángulo_7" fill="#008192" transform="translate(2.6475, 9.029) rotate(-180) translate(-2.6475, -9.029)" x="4.4408921e-16" y="6.381" width="5.295" height="5.296" rx="0.902"></rect>
                <rect id="Rectángulo_8" fill="#008192" transform="translate(15.0065, 15.41) rotate(-180) translate(-15.0065, -15.41)" x="12.359" y="12.762" width="5.295" height="5.296" rx="0.902"></rect>
                <rect id="Rectángulo_9" fill="#008192" transform="translate(8.8275, 15.41) rotate(-180) translate(-8.8275, -15.41)" x="6.18" y="12.762" width="5.295" height="5.296" rx="0.902"></rect>
                <rect id="Rectángulo_10" fill="#008192" transform="translate(2.6475, 15.41) rotate(-180) translate(-2.6475, -15.41)" x="4.4408921e-16" y="12.762" width="5.295" height="5.296" rx="0.902"></rect>
            </g>
        </g>
    </g>
</svg>